<svg id="Layer_1" data-name="Layer 1" xmlns="http://www.w3.org/2000/svg" viewBox="0 0 240 66.44"><defs><style>.cls-1{fill:#192b33;}</style></defs><title>HALO_logo</title><path class="cls-1" d="M197.27,296.32v15.27h13.61V296.32h11.27v42.9H210.88V322.86H197.27v16.36H186v-42.9Z" transform="translate(-186 -272.78)"/><path class="cls-1" d="M252,339.22l20-42.9h5.09l20.19,42.9H286l-2.63-5.61H265.85l-2.57,5.61Zm18.25-15.1H279l-4.35-9.44Z" transform="translate(-186 -272.78)"/><path class="cls-1" d="M327.14,296.32h11.27v31.57h15.44v11.33H327.14Z" transform="translate(-186 -272.78)"/><path class="cls-1" d="M404.55,296.32a21.45,21.45,0,1,1-21.39,21.5A21.5,21.5,0,0,1,404.55,296.32Zm0,15.51a5.94,5.94,0,1,0,5.94,5.94A5.92,5.92,0,0,0,404.56,311.83Z" transform="translate(-186 -272.78)"/><path class="cls-1" d="M404.56,272.78a5.94,5.94,0,1,0,5.94,5.94A5.93,5.93,0,0,0,404.56,272.78Z" transform="translate(-186 -272.78)"/></svg>